{
 "accessors": [
  {
   "componentType": 5126,
   "type": "VEC3",
   "count": 1320,
   "max": [
    7.811910152435303,
    39.5625,
    20.559499740600586
   ],
   "min": [
    -7.811910152435303,
    9.188179969787598,
    -36.98509979248047
   ],
   "bufferView": 3
  },
  {
   "componentType": 5126,
   "type": "VEC3",
   "count": 1320,
   "bufferView": 4
  },
  {
   "componentType": 5126,
   "type": "VEC2",
   "count": 1320,
   "bufferView": 5
  },
  {
   "componentType": 5123,
   "type": "SCALAR",
   "count": 5904,
   "bufferView": 6
  },
  {
   "componentType": 5126,
   "type": "VEC3",
   "count": 20,
   "max": [
    2.7553699016571045,
    29.995899200439453,
    18.464399337768555
   ],
   "min": [
    -2.7553699016571045,
    26.930299758911133,
    16.467100143432617
   ],
   "bufferView": 7
  },
  {
   "componentType": 5126,
   "type": "VEC3",
   "count": 20,
   "bufferView": 8
  },
  {
   "componentType": 5126,
   "type": "VEC2",
   "count": 20,
   "bufferView": 9
  },
  {
   "componentType": 5121,
   "type": "SCALAR",
   "count": 54,
   "bufferView": 10
  },
  {
   "componentType": 5126,
   "type": "VEC3",
   "count": 60,
   "max": [
    7.822999954223633,
    28.796100616455078,
    14.763199806213379
   ],
   "min": [
    -7.822999954223633,
    17.643600463867188,
    -36.84550094604492
   ],
   "bufferView": 11
  },
  {
   "componentType": 5126,
   "type": "VEC3",
   "count": 60,
   "bufferView": 12
  },
  {
   "componentType": 5126,
   "type": "VEC2",
   "count": 60,
   "bufferView": 13
  },
  {
   "componentType": 5121,
   "type": "SCALAR",
   "count": 132,
   "bufferView": 14
  }
 ],
 "asset": {
  "version": "2.0",
  "generator": "clara.io"
 },
 "bufferViews": [
  {
   "buffer": 0,
   "byteOffset": 0,
   "byteLength": 6783
  },
  {
   "buffer": 0,
   "byteOffset": 6784,
   "byteLength": 20004
  },
  {
   "buffer": 0,
   "byteOffset": 26788,
   "byteLength": 28415
  },
  {
   "buffer": 0,
   "byteOffset": 55204,
   "byteLength": 15840,
   "target": 34962,
   "byteStride": 12
  },
  {
   "buffer": 0,
   "byteOffset": 71044,
   "byteLength": 15840,
   "target": 34962,
   "byteStride": 12
  },
  {
   "buffer": 0,
   "byteOffset": 86884,
   "byteLength": 10560,
   "target": 34962,
   "byteStride": 8
  },
  {
   "buffer": 0,
   "byteOffset": 97444,
   "byteLength": 11808,
   "target": 34963
  },
  {
   "buffer": 0,
   "byteOffset": 109252,
   "byteLength": 240,
   "target": 34962,
   "byteStride": 12
  },
  {
   "buffer": 0,
   "byteOffset": 109492,
   "byteLength": 240,
   "target": 34962,
   "byteStride": 12
  },
  {
   "buffer": 0,
   "byteOffset": 109732,
   "byteLength": 160,
   "target": 34962,
   "byteStride": 8
  },
  {
   "buffer": 0,
   "byteOffset": 109892,
   "byteLength": 54,
   "target": 34963
  },
  {
   "buffer": 0,
   "byteOffset": 109948,
   "byteLength": 720,
   "target": 34962,
   "byteStride": 12
  },
  {
   "buffer": 0,
   "byteOffset": 110668,
   "byteLength": 720,
   "target": 34962,
   "byteStride": 12
  },
  {
   "buffer": 0,
   "byteOffset": 111388,
   "byteLength": 480,
   "target": 34962,
   "byteStride": 8
  },
  {
   "buffer": 0,
   "byteOffset": 111868,
   "byteLength": 132,
   "target": 34963
  }
 ],
 "buffers": [
  {
   "byteLength": 112000,
   "uri": "data:application/octet-stream;base64,"
  }
 ],
 "images": [
  {
   "name": "gyarados_0_0.tga",
   "bufferView": 0,
   "mimeType": "image/png"
  },
  {
   "name": "gyarados_0_1.tga",
   "bufferView": 1,
   "mimeType": "image/png"
  },
  {
   "name": "gyarados_0_2.tga",
   "bufferView": 2,
   "mimeType": "image/png"
  }
 ],
 "materials": [
  {
   "name": "mat_0",
   "pbrMetallicRoughness": {
    "baseColorFactor": [
     0.8,
     0.8,
     0.8,
     1
    ],
    "baseColorTexture": {
     "index": 0,
     "texCoord": 0
    },
    "roughnessFactor": 0.7071,
    "metallicFactor": 0
   },
   "doubleSided": true
  },
  {
   "name": "mat_1",
   "pbrMetallicRoughness": {
    "baseColorFactor": [
     0.8,
     0.8,
     0.8,
     1
    ],
    "baseColorTexture": {
     "index": 1,
     "texCoord": 0
    },
    "roughnessFactor": 0.7071,
    "metallicFactor": 0
   },
   "doubleSided": true
  },
  {
   "name": "mat_2",
   "pbrMetallicRoughness": {
    "baseColorFactor": [
     0.8,
     0.8,
     0.8,
     1
    ],
    "baseColorTexture": {
     "index": 2,
     "texCoord": 0
    },
    "roughnessFactor": 0.7071,
    "metallicFactor": 0
   },
   "doubleSided": true
  }
 ],
 "meshes": [
  {
   "primitives": [
    {
     "indices": 3,
     "material": 2,
     "mode": 4,
     "attributes": {
      "POSITION": 0,
      "NORMAL": 1,
      "TEXCOORD_0": 2
     }
    }
   ]
  },
  {
   "primitives": [
    {
     "indices": 7,
     "material": 1,
     "mode": 4,
     "attributes": {
      "POSITION": 4,
      "NORMAL": 5,
      "TEXCOORD_0": 6
     }
    }
   ]
  },
  {
   "primitives": [
    {
     "indices": 11,
     "material": 0,
     "mode": 4,
     "attributes": {
      "POSITION": 8,
      "NORMAL": 9,
      "TEXCOORD_0": 10
     }
    }
   ]
  }
 ],
 "nodes": [
  {
   "name": "BR_Gyarados-Shiny03",
   "translation": [
    0,
    -10.491900444030762,
    0
   ],
   "children": [
    1,
    2,
    3
   ]
  },
  {
   "name": "gyarados_mat_2_gyarados_mat_2",
   "mesh": 0
  },
  {
   "name": "gyarados_mat_1_gyarados_mat_1",
   "mesh": 1
  },
  {
   "name": "gyarados_mat_0_gyarados_mat_0",
   "mesh": 2
  }
 ],
 "samplers": [
  {
   "magFilter": 9729,
   "minFilter": 9987,
   "wrapS": 10497,
   "wrapT": 10497
  }
 ],
 "scene": 0,
 "scenes": [
  {
   "nodes": [
    0
   ]
  }
 ],
 "textures": [
  {
   "sampler": 0,
   "source": 0
  },
  {
   "sampler": 0,
   "source": 1
  },
  {
   "sampler": 0,
   "source": 2
  }
 ]
}